HIERARCHY
ROOT Hips
{
	OFFSET -0.179506 -22.333345 2.821913
	CHANNELS 6 Xposition Yposition Zposition Zrotation Yrotation Xrotation 
	JOINT LeftUpLeg
	{
		OFFSET 6.951974 -9.140623 -0.681533
		CHANNELS 3 Zrotation Yrotation Xrotation
		JOINT LeftLeg
		{
			OFFSET 3.427654 -37.519855 -0.449580
			CHANNELS 3 Zrotation Yrotation Xrotation
			JOINT LeftFoot
			{
				OFFSET -1.359570 -39.796059 -4.369333
				CHANNELS 3 Zrotation Yrotation Xrotation
				JOINT LeftToe
				{
					OFFSET 2.635814 -5.579078 11.928840
					CHANNELS 3 Zrotation Yrotation Xrotation
					End Site
					{
						OFFSET 0.000000 0.000000 0.000000
					}
				}
			}
		}
	}
	JOINT RightUpLeg
	{
		OFFSET -6.767048 -9.052170 -0.431982
		CHANNELS 3 Zrotation Yrotation Xrotation
		JOINT RightLeg
		{
			OFFSET -3.829005 -38.256897 -0.885003
			CHANNELS 3 Zrotation Yrotation Xrotation
			JOINT RightFoot
			{
				OFFSET 1.577377 -39.841461 -4.231180
				CHANNELS 3 Zrotation Yrotation Xrotation
				JOINT RightToe
				{
					OFFSET -2.537174 -4.814398 12.334795
					CHANNELS 3 Zrotation Yrotation Xrotation
					End Site
					{
						OFFSET 0.000000 0.000000 0.000000
					}
				}
			}
		}
	}
	JOINT Spine
	{
		OFFSET -0.253288 10.896323 -2.669631
		CHANNELS 3 Zrotation Yrotation Xrotation
		JOINT Spine1
		{
			OFFSET 0.548704 13.518043 0.109247
			CHANNELS 3 Zrotation Yrotation Xrotation
			JOINT Spine2
			{
				OFFSET 0.145701 5.292222 2.542457
				CHANNELS 3 Zrotation Yrotation Xrotation
				JOINT Neck
				{
					OFFSET -0.277840 21.387037 -4.285703
					CHANNELS 3 Zrotation Yrotation Xrotation
					JOINT Head
					{
						OFFSET 0.515184 6.496960 5.134897
						CHANNELS 3 Zrotation Yrotation Xrotation
						End Site
						{
							OFFSET 0.000000 0.000000 0.000000
						}
					}
				}
				JOINT LeftShoulder
				{
					OFFSET 7.884473 12.174932 -3.408961
					CHANNELS 3 Zrotation Yrotation Xrotation
					JOINT LeftArm
					{
						OFFSET 9.097692 3.046888 -0.886815
						CHANNELS 3 Zrotation Yrotation Xrotation
						JOINT LeftForeArm
						{
							OFFSET 25.961220 -1.277207 -2.745643
							CHANNELS 3 Zrotation Yrotation Xrotation
							JOINT LeftHand
							{
								OFFSET 24.923361 0.898606 -0.117091
								CHANNELS 3 Zrotation Yrotation Xrotation
								End Site
								{
									OFFSET 0.000000 0.000000 0.000000
								}
							}
						}
					}
				}
				JOINT RightShoulder
				{
					OFFSET -8.175920 11.883285 -3.861528
					CHANNELS 3 Zrotation Yrotation Xrotation
					JOINT RightArm
					{
						OFFSET -9.601238 3.255117 -0.914307
						CHANNELS 3 Zrotation Yrotation Xrotation
						JOINT RightForeArm
						{
							OFFSET -25.374195 -1.332924 -2.140099
							CHANNELS 3 Zrotation Yrotation Xrotation
							JOINT RightHand
							{
								OFFSET -25.529810 0.777228 -0.555919
								CHANNELS 3 Zrotation Yrotation Xrotation
								End Site
								{
									OFFSET 0.000000 0.000000 0.000000
								}
							}
						}
					}
				}
			}
		}
	}
}
MOTION
Frames: 6
Frame Time: 0.033333
60.248455 53.977383 92.562553 -176.982574 0.031474 89.989056 2.358009 2.720484 2.558309 -3.886404 -3.378124 -5.116914 -0.076740 8.536336 -1.325205 nan nan nan -4.105974 -4.107802 1.173069 2.266599 -2.531383 -2.917265 4.147678 -6.369751 -4.466252 nan nan nan -0.272211 1.325593 2.198647 1.965625 -4.117072 4.944320 0.964252 -1.296699 -3.490686 -0.246328 2.467803 2.275106 2.665115 1.167132 12.081698 -30.938744 -3.443040 4.786634 -54.074504 -6.939694 16.428279 3.392846 -17.617784 10.657512 -8.273910 -11.466243 6.444440 31.278698 5.602108 5.770103 51.645884 5.033516 14.319024 -11.212435 20.250760 -3.324105 6.724622 8.835221 0.417492 
60.213982 53.963547 92.543777 -176.976170 -0.193548 90.111239 2.110821 2.255441 2.768236 -3.989802 -4.333172 -6.577758 1.974146 9.051958 -4.817024 nan nan nan -4.386301 -4.155469 0.977838 2.210880 -2.228499 -2.847840 4.804776 -6.493589 -4.760570 nan nan nan -0.436661 1.351562 2.331802 1.917164 -4.104221 4.739914 0.928141 -1.238434 -3.733272 -0.364327 2.106753 2.055205 2.827494 1.545088 13.096522 -30.654678 -3.408768 4.810009 -54.375213 -6.817744 16.725422 3.503950 -17.590495 11.166893 -8.355780 -11.480299 6.169136 31.017386 5.508160 5.808230 52.166143 4.893318 14.577336 -11.595480 20.226675 -3.375693 7.096760 9.029554 -0.412977 
60.208572 53.974060 92.518593 -176.940015 -0.158715 90.111732 2.170445 2.248802 2.751009 -4.019686 -4.300871 -6.564675 1.994235 9.003748 -4.643882 nan nan nan -4.352817 -4.170671 0.984486 2.216375 -2.239552 -2.896815 4.828081 -6.496917 -4.754361 nan nan nan -0.376374 1.341677 2.345904 1.884435 -4.089928 4.693472 0.920816 -1.246802 -3.688894 -0.328658 2.094455 2.025277 2.862028 1.547609 13.211931 -30.558750 -3.416915 4.840419 -54.469486 -6.849878 16.745979 3.532651 -17.588290 11.249973 -8.347033 -11.472998 6.027837 30.903138 5.476195 5.775610 52.300642 4.916452 14.630335 -11.625537 20.224704 -3.336636 7.117144 9.020776 -0.559269 
60.210346 53.992729 92.500519 -176.821823 -0.143736 90.290047 2.242458 2.206069 2.480862 -4.111877 -4.455401 -6.464381 2.181752 9.093945 -4.625748 nan nan nan -4.299941 -4.223171 0.791999 2.202870 -2.243944 -2.907988 4.835622 -6.550611 -4.989654 nan nan nan -0.394372 1.400186 2.265109 1.790396 -4.073631 5.462005 0.894693 -0.963048 -4.354551 -0.374564 1.668170 1.547402 3.292601 1.514063 12.968301 -30.359948 -3.570140 4.712767 -54.620995 -6.737750 16.868270 3.663193 -17.659163 11.719984 -8.952352 -11.566286 6.714203 31.066161 5.034307 5.601652 52.356639 4.636727 14.197018 -11.890448 20.851254 -3.270191 7.439728 9.335410 0.014291 
60.214245 54.013443 92.527481 -176.728037 0.059063 90.253294 2.571943 2.251470 2.387280 -4.350857 -4.335582 -6.217571 2.205703 9.085985 -4.639767 nan nan nan -4.209813 -4.620892 0.656547 3.272781 -2.993992 -1.986078 4.728513 -7.347588 -5.142292 nan nan nan -0.296360 1.543766 2.244071 1.880261 -3.839075 5.490468 1.048069 -1.166698 -4.273592 -0.194367 1.612752 1.303368 3.078553 1.280443 13.091704 -30.590330 -3.915244 5.046608 -54.631593 -6.911793 16.640096 3.794853 -17.532497 11.891373 -9.175883 -11.462010 6.624863 31.015654 5.008784 5.576901 52.312312 4.417026 14.034757 -12.135429 21.138010 -3.248472 7.333279 9.292298 -0.284487 
60.189114 54.040268 92.479988 -176.538619 -0.046987 90.571940 2.580858 1.775222 1.833182 -4.579352 -4.070494 -5.406218 3.055393 9.023532 -4.990571 nan nan nan -4.399838 -4.363285 0.507667 3.415283 -3.187406 -2.204561 4.898025 -7.423664 -5.333538 nan nan nan -0.560550 1.499386 1.796692 1.875248 -3.690486 5.622725 1.500594 -1.453888 -4.161233 -0.709178 1.883026 0.552040 3.332069 1.047112 13.269932 -30.191478 -3.703246 5.318683 -55.697575 -7.288073 15.392411 5.516650 -17.975695 10.430807 -13.766835 -15.367671 2.831501 30.820875 5.095492 5.799132 52.545280 4.775882 13.497298 -12.454889 20.655785 -2.833334 10.877222 9.840870 -1.317442 
